<?xml version="1.0" encoding="utf-8"?>
<!-- Generator: Adobe Illustrator 18.1.1, SVG Export Plug-In . SVG Version: 6.00 Build 0)  -->
<svg version="1.1" id="Layer_1" xmlns="http://www.w3.org/2000/svg" xmlns:xlink="http://www.w3.org/1999/xlink" x="0px" y="0px"
	 viewBox="-13 15 20 20" enable-background="new -13 15 20 20" xml:space="preserve">
<path fill="#FFFFFF" d="M1.4,15h-9.1c-2.9,0-5.3,2.4-5.3,5.3v9.1c0,2.9,2.4,5.3,5.3,5.3h9.1c2.9,0,5.3-2.4,5.3-5.3v-9.1
	C6.7,17.4,4.3,15,1.4,15L1.4,15z M-3.1,30.3c-3,0-5.4-2.4-5.4-5.4c0-3,2.4-5.4,5.4-5.4c3,0,5.4,2.4,5.4,5.4
	C2.3,27.8-0.2,30.3-3.1,30.3z M2.4,20.7c-0.9,0-1.6-0.7-1.6-1.6c0-0.9,0.7-1.6,1.6-1.6c0.9,0,1.6,0.7,1.6,1.6
	C4,20,3.3,20.7,2.4,20.7z"/>
<path fill="#FFFFFF" d="M-3,21.8c-1.7,0-3,1.3-3,3c0,1.7,1.3,3,3,3c1.7,0,3-1.3,3-3C0,23.2-1.3,21.8-3,21.8z"/>
<path fill="#FFFFFF" d="M2.4,18.7c-0.2,0-0.4,0.2-0.4,0.4c0,0.2,0.2,0.4,0.4,0.4c0.2,0,0.4-0.2,0.4-0.4C2.8,18.9,2.6,18.7,2.4,18.7z
	"/>
</svg>
