<?xml version="1.0" encoding="utf-8"?>
<!-- Generator: Adobe Illustrator 18.1.1, SVG Export Plug-In . SVG Version: 6.00 Build 0)  -->
<svg version="1.1" id="Layer_1" xmlns="http://www.w3.org/2000/svg" xmlns:xlink="http://www.w3.org/1999/xlink" x="0px" y="0px"
	 viewBox="-12 17 23 16" enable-background="new -12 17 23 16" xml:space="preserve">
<path fill="#FFFFFF" d="M9.6,18.5C9,17.4,8.4,17.2,7,17.1C5.7,17,2.2,17-0.7,17c-3,0-6.4,0-7.7,0.1c-1.4,0.1-2,0.3-2.6,1.4
	c-0.6,1.1-1,3-1,6.3c0,0,0,0,0,0c0,0,0,0,0,0v0c0,3.3,0.3,5.2,1,6.3c0.6,1.1,1.3,1.3,2.6,1.4c1.4,0.1,4.8,0.1,7.7,0.1
	c2.9,0,6.4,0,7.7-0.1c1.4-0.1,2-0.3,2.6-1.4c0.6-1.1,1-3,1-6.3c0,0,0,0,0,0c0,0,0,0,0,0C10.6,21.5,10.3,19.6,9.6,18.5z M-3.5,29
	v-8.5l7.1,4.2L-3.5,29z"/>
</svg>
