<svg width="65" height="65" viewBox="0 0 65 65" fill="none" xmlns="http://www.w3.org/2000/svg">
<path d="M32.5 5.68248e-06C14.5798 2.54921e-06 -2.54921e-06 14.5798 -5.68248e-06 32.5C-8.81575e-06 50.4202 14.5798 65 32.5 65C50.4216 65 65 50.4202 65 32.5C65 14.5798 50.4216 8.816e-06 32.5 5.68248e-06ZM32.5 62.1739C16.1369 62.1739 2.82608 48.863 2.82608 32.5C2.82608 16.137 16.137 2.82609 32.5 2.82609C48.8616 2.8261 62.1739 16.137 62.1739 32.5C62.1739 48.863 48.8616 62.1739 32.5 62.1739Z" fill="#F27E59"/>
<path d="M25.4353 26.8475C25.4353 24.5104 23.5333 22.6084 21.1962 22.6084C18.859 22.6084 16.957 24.5104 16.957 26.8475C16.957 29.1847 18.859 31.0867 21.1962 31.0867C23.5333 31.0867 25.4353 29.1847 25.4353 26.8475ZM19.7831 26.8475C19.7831 26.0689 20.4176 25.4345 21.1962 25.4345C21.9747 25.4345 22.6092 26.0689 22.6092 26.8475C22.6092 27.6261 21.9747 28.2606 21.1962 28.2606C20.4176 28.2606 19.7831 27.6261 19.7831 26.8475Z" fill="#F27E59"/>
<path d="M43.805 22.6084C41.4679 22.6084 39.5659 24.5104 39.5659 26.8475C39.5659 29.1847 41.4679 31.0867 43.805 31.0867C46.1422 31.0867 48.0442 29.1847 48.0442 26.8475C48.0442 24.5104 46.1422 22.6084 43.805 22.6084ZM43.805 28.2606C43.025 28.2606 42.392 27.6261 42.392 26.8475C42.392 26.0689 43.025 25.4345 43.805 25.4345C44.585 25.4345 45.2181 26.0689 45.2181 26.8475C45.2181 27.6261 44.585 28.2606 43.805 28.2606Z" fill="#F27E59"/>
<path d="M32.5006 39.5645C27.2327 39.5645 22.2136 41.7956 18.7305 45.6872C18.2105 46.2693 18.2599 47.1624 18.8407 47.6824C19.4228 48.2038 20.3159 48.1529 20.8359 47.5722C23.7835 44.2784 28.0353 42.3905 32.5006 42.3905C36.9658 42.3905 41.2176 44.2784 44.1652 47.5722C44.4436 47.8845 44.8308 48.0427 45.2179 48.0427C45.5528 48.0427 45.892 47.924 46.1604 47.6824C46.7412 47.1624 46.7907 46.2693 46.2707 45.6872C42.7875 41.7971 37.7698 39.5645 32.5006 39.5645Z" fill="#F27E59"/>
</svg>
