<?xml version="1.0" encoding="utf-8"?>
<!-- Generator: Adobe Illustrator 18.1.1, SVG Export Plug-In . SVG Version: 6.00 Build 0)  -->
<svg version="1.1" id="Layer_1" xmlns="http://www.w3.org/2000/svg" xmlns:xlink="http://www.w3.org/1999/xlink" x="0px" y="0px"
	 viewBox="-10 17 26 15" enable-background="new -10 17 26 15" xml:space="preserve">
<path fill="#FFFFFF" d="M15.7,30.2c-0.1-0.1-0.5-1.1-2.6-3c-2.2-2-1.9-1.7,0.7-5.2c1.6-2.1,2.2-3.4,2-4c-0.2-0.5-1.4-0.4-1.4-0.4
	l-3.9,0c0,0-0.3,0-0.5,0.1c-0.2,0.1-0.3,0.4-0.3,0.4s-0.6,1.6-1.4,3c-1.7,3-2.4,3.1-2.7,2.9c-0.7-0.4-0.5-1.7-0.5-2.6
	c0-2.9,0.4-4.1-0.8-4.4C3.9,17.1,3.6,17,2.5,17c-1.4,0-2.6,0-3.2,0.3c-0.4,0.2-0.8,0.7-0.6,0.7c0.3,0,0.8,0.2,1.2,0.6
	c0.4,0.5,0.4,1.8,0.4,1.8s0.2,3.4-0.5,3.8c-0.5,0.3-1.2-0.3-2.8-3c-0.8-1.4-1.4-2.9-1.4-2.9s-0.1-0.3-0.3-0.4
	c-0.2-0.2-0.6-0.2-0.6-0.2l-3.7,0c0,0-0.6,0-0.8,0.3c-0.2,0.2,0,0.7,0,0.7s2.9,6.8,6.2,10.2c3,3.1,6.4,2.9,6.4,2.9h1.6
	c0,0,0.5-0.1,0.7-0.3c0.2-0.2,0.2-0.7,0.2-0.7s0-2.1,0.9-2.4c1-0.3,2.2,2,3.5,2.9c1,0.7,1.7,0.5,1.7,0.5l3.5,0
	C14.8,31.7,16.6,31.6,15.7,30.2z"/>
</svg>
