<svg width="65" height="65" viewBox="0 0 65 65" fill="none" xmlns="http://www.w3.org/2000/svg">
<path d="M32.5 5.68248e-06C14.5798 2.54921e-06 -2.54921e-06 14.5798 -5.68248e-06 32.5C-8.81575e-06 50.4202 14.5798 65 32.5 65C50.4202 65 65 50.4202 65 32.5C65 14.5798 50.4202 8.81575e-06 32.5 5.68248e-06ZM32.5 62.1739C16.1369 62.1739 2.82608 48.863 2.82608 32.5C2.82608 16.137 16.137 2.82609 32.5 2.82609C48.863 2.8261 62.1739 16.137 62.1739 32.5C62.1739 48.863 48.863 62.1739 32.5 62.1739Z" fill="#90A7A9"/>
<path d="M21.1957 31.0867C23.5328 31.0867 25.4348 29.1847 25.4348 26.8475C25.4348 24.5104 23.5328 22.6084 21.1957 22.6084C18.8585 22.6084 16.9565 24.5104 16.9565 26.8475C16.9565 29.1847 18.8585 31.0867 21.1957 31.0867ZM21.1957 25.4345C21.9743 25.4345 22.6087 26.0689 22.6087 26.8475C22.6087 27.6261 21.9743 28.2606 21.1957 28.2606C20.4171 28.2606 19.7826 27.6261 19.7826 26.8475C19.7826 26.0689 20.4171 25.4345 21.1957 25.4345Z" fill="#90A7A9"/>
<path d="M43.805 22.6084C41.4679 22.6084 39.5659 24.5104 39.5659 26.8475C39.5659 29.1847 41.4679 31.0867 43.805 31.0867C46.1422 31.0867 48.0442 29.1847 48.0442 26.8475C48.0442 24.5104 46.1422 22.6084 43.805 22.6084ZM43.805 28.2606C43.0265 28.2606 42.392 27.6261 42.392 26.8475C42.392 26.0689 43.0265 25.4345 43.805 25.4345C44.5836 25.4345 45.2181 26.0689 45.2181 26.8475C45.2181 27.6261 44.5836 28.2606 43.805 28.2606Z" fill="#90A7A9"/>
<path d="M46.6305 39.5645L18.3696 39.5645C17.5896 39.5645 16.9565 40.1975 16.9565 40.9775C16.9565 41.7575 17.5896 42.3905 18.3696 42.3905L46.6305 42.3905C47.4105 42.3905 48.0435 41.7575 48.0435 40.9775C48.0435 40.1975 47.4105 39.5645 46.6305 39.5645Z" fill="#90A7A9"/>
</svg>
