<svg width="65" height="65" viewBox="0 0 65 65" fill="none" xmlns="http://www.w3.org/2000/svg">
<path d="M46.1595 39.9258C45.5773 39.4044 44.6828 39.4553 44.1643 40.0361C41.2166 43.3299 36.9662 45.2177 32.4996 45.2177C28.0344 45.2177 23.7825 43.3299 20.8349 40.0361C20.3135 39.4553 19.4219 39.4044 18.8397 39.9258C18.2575 40.4458 18.2095 41.3389 18.7295 41.9211C22.2126 45.8126 27.2318 48.0438 32.4996 48.0438C37.7688 48.0438 42.7879 45.8112 46.2697 41.9211C46.7897 41.3389 46.7402 40.4458 46.1595 39.9258Z" fill="#65C763"/>
<path d="M32.5 5.68248e-06C14.5798 2.54921e-06 -2.54921e-06 14.5798 -5.68248e-06 32.5C-8.81575e-06 50.4202 14.5798 65 32.5 65C50.4202 65 65 50.4202 65 32.5C65 14.5798 50.4202 8.81575e-06 32.5 5.68248e-06ZM32.5 62.1739C16.1369 62.1739 2.82608 48.863 2.82608 32.5C2.82608 16.137 16.137 2.82609 32.5 2.82609C48.863 2.8261 62.1739 16.137 62.1739 32.5C62.1739 48.863 48.863 62.1739 32.5 62.1739Z" fill="#65C763"/>
<path d="M43.804 22.6094C39.9082 22.6094 36.7388 25.7788 36.7388 29.6746C36.7388 30.4546 37.3718 31.0876 38.1518 31.0876C38.9318 31.0876 39.5649 30.4546 39.5649 29.6746C39.5649 27.3374 41.4668 25.4355 43.804 25.4355C46.1412 25.4355 48.0431 27.3374 48.0431 29.6746C48.0431 30.4546 48.6762 31.0876 49.4562 31.0876C50.2362 31.0876 50.8692 30.4546 50.8692 29.6746C50.8692 25.7788 47.6997 22.6094 43.804 22.6094Z" fill="#65C763"/>
<path d="M25.4342 29.6746C25.4342 30.4546 26.0673 31.0876 26.8473 31.0876C27.6273 31.0876 28.2603 30.4546 28.2603 29.6746C28.2603 25.7788 25.0909 22.6094 21.1951 22.6094C17.2993 22.6094 14.1299 25.7788 14.1299 29.6746C14.1299 30.4546 14.7629 31.0876 15.5429 31.0876C16.3229 31.0876 16.956 30.4546 16.956 29.6746C16.956 27.3374 18.8579 25.4355 21.1951 25.4355C23.5323 25.4355 25.4342 27.3374 25.4342 29.6746Z" fill="#65C763"/>
<path d="M46.1595 39.9258C45.5773 39.4044 44.6828 39.4553 44.1643 40.0361C41.2166 43.3299 36.9662 45.2177 32.4996 45.2177C28.0344 45.2177 23.7825 43.3299 20.8349 40.0361C20.3135 39.4553 19.4219 39.4044 18.8397 39.9258C18.2575 40.4458 18.2095 41.3389 18.7295 41.9211C22.2126 45.8126 27.2318 48.0438 32.4996 48.0438C37.7688 48.0438 42.7879 45.8112 46.2697 41.9211C46.7897 41.3389 46.7402 40.4458 46.1595 39.9258Z" fill="#65C763"/>
<path d="M32.5 5.68248e-06C14.5798 2.54921e-06 -2.54921e-06 14.5798 -5.68248e-06 32.5C-8.81575e-06 50.4202 14.5798 65 32.5 65C50.4202 65 65 50.4202 65 32.5C65 14.5798 50.4202 8.81575e-06 32.5 5.68248e-06ZM32.5 62.1739C16.1369 62.1739 2.82608 48.863 2.82608 32.5C2.82608 16.137 16.137 2.82609 32.5 2.82609C48.863 2.8261 62.1739 16.137 62.1739 32.5C62.1739 48.863 48.863 62.1739 32.5 62.1739Z" fill="#65C763"/>
<path d="M43.804 22.6094C39.9082 22.6094 36.7388 25.7788 36.7388 29.6746C36.7388 30.4546 37.3718 31.0876 38.1518 31.0876C38.9318 31.0876 39.5649 30.4546 39.5649 29.6746C39.5649 27.3374 41.4668 25.4355 43.804 25.4355C46.1412 25.4355 48.0431 27.3374 48.0431 29.6746C48.0431 30.4546 48.6762 31.0876 49.4562 31.0876C50.2362 31.0876 50.8692 30.4546 50.8692 29.6746C50.8692 25.7788 47.6997 22.6094 43.804 22.6094Z" fill="#65C763"/>
<path d="M25.4342 29.6746C25.4342 30.4546 26.0673 31.0876 26.8473 31.0876C27.6273 31.0876 28.2603 30.4546 28.2603 29.6746C28.2603 25.7788 25.0909 22.6094 21.1951 22.6094C17.2993 22.6094 14.1299 25.7788 14.1299 29.6746C14.1299 30.4546 14.7629 31.0876 15.5429 31.0876C16.3229 31.0876 16.956 30.4546 16.956 29.6746C16.956 27.3374 18.8579 25.4355 21.1951 25.4355C23.5323 25.4355 25.4342 27.3374 25.4342 29.6746Z" fill="#65C763"/>
</svg>
