<?xml version="1.0" encoding="utf-8"?>
<!-- Generator: Adobe Illustrator 22.1.0, SVG Export Plug-In . SVG Version: 6.00 Build 0)  -->
<svg version="1.1" id="Layer_1" xmlns="http://www.w3.org/2000/svg" xmlns:xlink="http://www.w3.org/1999/xlink" x="0px" y="0px"
	 viewBox="0 0 180 59" style="enable-background:new 0 0 180 59;" xml:space="preserve">
<style type="text/css">
	.st0{fill:#FFFFFF;}
</style>
<path class="st0" d="M51,7.2c4,0,9.5,1.5,9.5,8.8c0,4.1-2.6,8-8.1,8.9l10.4,14.3h-2.7L49.9,25.1h-6.6v14.1h-2.2V7.2L51,7.2z
	 M58.2,16c0-5.3-3.9-6.9-7.4-6.9h-7.6v14.2H50C53.8,23.2,58.2,21.2,58.2,16z"/>
<path class="st0" d="M90.1,7.2v3.3H74.9v10.5h12.7v3.3H74.9v11.4h15.2v3.3H70.9V7.2L90.1,7.2z"/>
<path class="st0" d="M99.1,7.2h6.4l5.5,10c0.4,0.7,0.7,1.4,1,2.1h0.3c0.3-0.7,0.6-1.3,0.9-2l5.7-10.1h6.2l-9.2,15.6l9.9,16.3h-6.4
	L113,28.3c-0.4-0.7-0.7-1.4-1-2.1h-0.3c-0.3,0.7-0.6,1.4-1,2.1l-6.3,10.9h-6.2l10-16.3L99.1,7.2z"/>
<path class="st0" d="M143.6,7.2v31.9h-8V7.2H143.6z"/>
<path class="st0" d="M156.3,28.6c2.8,2.2,6.2,3.4,9.8,3.5c2.5,0,3.3-0.8,3.4-1.8c0-1-0.9-1.2-3.4-2.3l-4.9-2
	c-4.6-1.9-7.8-4.7-7.8-9.3c0-6.2,4.8-9.9,13.8-9.9c2.3,0,4.6,0.4,6.7,1.3s4.1,2.2,5.7,3.8l-5.1,5.7c-1-1-2.1-1.8-3.4-2.3
	c-1.3-0.5-2.7-0.8-4.1-0.8c-2.3,0-3.1,0.9-3.1,1.8c0,1.4,1,2.1,4.6,3.4l3.2,1.1c5.5,2,8.4,4.4,8.4,9c0,6.6-6.4,9.9-13.5,9.9
	c-5.2,0.1-10.3-1.6-14.5-4.8L156.3,28.6z"/>
<path class="st0" d="M10,8.1c3.2-0.7,6.6-0.6,9.8,0.4c3.2,1,6,2.9,8.2,5.3c2.2,2.5,3.7,5.5,4.4,8.8c0.6,3.3,0.4,6.7-0.7,9.8
	c2.4-4.2,3.1-9.2,1.8-13.9c-1.3-4.7-4.3-8.7-8.6-11.1s-9.2-3.1-13.9-1.8C6.4,6.9,2.4,10,0,14.2C2.6,11.1,6.1,8.9,10,8.1z"/>
<path class="st0" d="M6.3,19c-0.9,2.8-1,5.8-0.3,8.7s2.1,5.5,4.1,7.6c2,2.1,4.6,3.7,7.5,4.5c2.8,0.8,5.8,0.8,8.7,0
	c-3.9,1.8-8.3,2-12.3,0.6c-4-1.4-7.3-4.4-9.1-8.3c-1.8-3.9-2.1-8.3-0.6-12.3c1.4-4,4.4-7.3,8.2-9.2C9.5,12.7,7.3,15.6,6.3,19z"/>
<path class="st0" d="M28.3,5.1c1.4,0,2.5-1.1,2.5-2.5S29.7,0,28.3,0c-1.4,0-2.5,1.1-2.5,2.5S26.9,5.1,28.3,5.1z"/>
<path class="st0" d="M18,36c1.4,0,2.5-1.1,2.5-2.5c0-1.4-1.1-2.5-2.5-2.5c-1.4,0-2.5,1.1-2.5,2.5C15.4,34.9,16.6,36,18,36z"/>
<path class="st0" d="M41.8,57.6c0.2,0.3,0.5,0.5,0.9,0.6c0.3,0.1,0.7,0.2,1,0.2c1,0,2.4-0.6,2.4-3v-0.6c0-0.1,0-0.4,0-0.6
	c-0.7,0.8-1.6,1.2-2.6,1.3c-1.8,0-2.4-1.6-2.4-3.3c0-1.6,0.6-3.7,2.8-3.7c0.8,0,1.6,0.4,2.2,1v-0.8h0.6v6.6c0,2.9-2,3.6-3,3.6
	c-0.4,0-0.8-0.1-1.2-0.2c-0.4-0.2-0.7-0.4-1-0.7L41.8,57.6z M46.1,50.2c-0.6-0.6-1.4-1-2.2-1.1c-1.3,0-2.1,1.3-2.1,3.1
	c0,1.1,0.3,2.7,1.9,2.7c1-0.2,1.9-0.7,2.5-1.4V50.2z"/>
<path class="st0" d="M52.5,58.3c0.1,0,0.3,0,0.4,0c0.8,0,1.4-0.4,2-2.2l0.2-0.7l-2.8-6.7H53l2.2,5.3c0.1,0.2,0.1,0.4,0.2,0.7
	c0.1-0.2,0.1-0.5,0.2-0.7l1.9-5.3h0.7l-2.8,7.8c-0.7,1.9-1.5,2.4-2.5,2.4c-0.2,0-0.3,0-0.4-0.1L52.5,58.3z"/>
<path class="st0" d="M64.5,48.7V50c0.3-0.4,0.7-0.7,1.1-0.9c0.4-0.2,0.9-0.4,1.4-0.4c0.4,0,0.8,0.1,1.1,0.3c0.3,0.3,0.5,0.6,0.5,1
	c0.3-0.4,0.7-0.7,1.1-0.9c0.4-0.2,0.9-0.4,1.4-0.4c1.6,0,1.7,1.1,1.7,2.2v4.6h-0.6v-4.6c0-1-0.2-1.7-1.2-1.7
	c-0.5,0.1-0.9,0.2-1.3,0.5c-0.4,0.3-0.8,0.6-1,1v4.8h-0.6v-4.5c0-1-0.2-1.7-1.2-1.7c-0.5,0.1-0.9,0.2-1.3,0.5c-0.4,0.3-0.8,0.6-1,1
	v4.8h-0.6v-6.7L64.5,48.7z"/>
<path class="st0" d="M80.1,48.7V50c0.7-0.8,1.7-1.2,2.7-1.4c1.7,0,1.9,1.1,1.9,2.2v4.6h-0.6v-4.6c0-1-0.3-1.7-1.3-1.7
	c-1,0.2-2,0.7-2.7,1.5v4.8h-0.6v-6.7L80.1,48.7z"/>
<path class="st0" d="M93.6,51.4h1.7v-0.6c0-1.4-0.8-1.7-1.6-1.7c-0.7,0-1.4,0.3-2,0.8l-0.4-0.4c0.7-0.6,1.5-0.9,2.4-0.9
	c2,0,2.2,1.2,2.2,2.2v4.6h-0.6v-1.3c-0.7,0.8-1.6,1.2-2.6,1.4c-0.3,0-0.5,0-0.8-0.1c-0.3-0.1-0.5-0.2-0.7-0.4
	c-0.2-0.2-0.3-0.4-0.4-0.7c-0.1-0.3-0.1-0.5-0.1-0.8C90.8,51.9,92.2,51.4,93.6,51.4z M95.3,51.9h-1.7c-1.2,0-2.2,0.3-2.2,1.6
	c0,0.2,0,0.4,0,0.6c0.1,0.2,0.2,0.4,0.3,0.5c0.1,0.1,0.3,0.2,0.5,0.3c0.2,0.1,0.4,0.1,0.6,0.1c1-0.2,1.9-0.7,2.5-1.5V51.9z"/>
<path class="st0" d="M102.5,54.2c0.2,0.3,0.5,0.5,0.9,0.6c0.3,0.1,0.7,0.2,1,0.2c0.9,0,1.6-0.4,1.6-1.1c0-0.7-0.4-1-1.5-1.5
	l-0.5-0.2c-1.2-0.5-1.6-1.1-1.6-1.9s0.6-1.6,2.1-1.6c0.4,0,0.8,0.1,1.1,0.2c0.3,0.2,0.7,0.4,0.9,0.7l-0.4,0.4
	c-0.2-0.2-0.5-0.4-0.7-0.5c-0.3-0.1-0.6-0.2-0.9-0.2c-1,0-1.4,0.5-1.4,1.1c0,0.6,0.3,0.9,1.1,1.3l0.5,0.2c1.6,0.7,2,1.1,2,2.1
	c-0.1,0.5-0.3,1-0.7,1.3c-0.4,0.3-0.9,0.5-1.4,0.4c-0.4,0-0.9-0.1-1.3-0.2c-0.4-0.2-0.8-0.4-1.1-0.8L102.5,54.2z"/>
<path class="st0" d="M113.1,49.3h-1.3v-0.5h1.3v-1.6l0.6-0.1v1.8h2v0.5h-2v4.4c0,1.1,0.4,1.3,1,1.3c0.4,0,0.8-0.2,1.1-0.5l0.3,0.4
	c-0.4,0.4-0.9,0.7-1.5,0.7c-0.9,0-1.5-0.4-1.5-1.8L113.1,49.3z"/>
<path class="st0" d="M122.7,45.9v0.9h-0.8v-0.9H122.7z M122.6,48.7v6.7h-0.6v-6.7H122.6z"/>
<path class="st0" d="M131.6,48.6c0.4,0,0.8,0.1,1.1,0.2c0.4,0.2,0.7,0.4,0.9,0.7l-0.4,0.4c-0.2-0.2-0.5-0.4-0.8-0.6
	c-0.3-0.1-0.6-0.2-0.9-0.2c-1.6,0-2.3,1.6-2.3,2.9c0,1.3,0.6,2.9,2.3,2.9c0.3,0,0.7-0.1,1-0.2c0.3-0.1,0.6-0.3,0.8-0.6l0.3,0.4
	c-0.3,0.3-0.6,0.5-1,0.7c-0.4,0.2-0.8,0.3-1.2,0.3c-1.6,0-2.9-1-2.9-3.4C128.6,50.1,129.7,48.6,131.6,48.6z"/>
<path class="st0" d="M139.4,54.2c0.2,0.3,0.5,0.5,0.8,0.6c0.3,0.1,0.7,0.2,1,0.2c0.9,0,1.6-0.4,1.6-1.1c0-0.7-0.4-1-1.5-1.5
	l-0.5-0.2c-1.2-0.5-1.6-1.1-1.6-1.9s0.6-1.6,2.1-1.6c0.4,0,0.8,0.1,1.1,0.2c0.3,0.2,0.7,0.4,0.9,0.7l-0.4,0.4
	c-0.2-0.2-0.5-0.4-0.7-0.5s-0.6-0.2-0.9-0.2c-0.9,0-1.4,0.5-1.4,1.1s0.3,0.9,1.1,1.3l0.5,0.2c1.6,0.7,2.1,1.1,2.1,2.1
	c-0.1,0.5-0.3,1-0.7,1.3c-0.4,0.3-0.9,0.5-1.4,0.4c-0.4,0-0.9-0.1-1.3-0.2c-0.4-0.2-0.8-0.4-1.1-0.8L139.4,54.2z"/>
</svg>
